<svg width="25" height="12" viewBox="0 0 25 12" fill="none" xmlns="http://www.w3.org/2000/svg">
<path d="M15.1 1H18.1C18.7566 1 19.4068 1.12933 20.0134 1.3806C20.6201 1.63188 21.1712 2.00017 21.6355 2.46447C22.0998 2.92876 22.4681 3.47996 22.7194 4.08658C22.9707 4.69321 23.1 5.34339 23.1 6C23.1 6.65661 22.9707 7.30679 22.7194 7.91342C22.4681 8.52004 22.0998 9.07124 21.6355 9.53553C21.1712 9.99983 20.6201 10.3681 20.0134 10.6194C19.4068 10.8707 18.7566 11 18.1 11H15.1M9.10001 11H6.10001C5.4434 11 4.79322 10.8707 4.18659 10.6194C3.57996 10.3681 3.02877 9.99983 2.56447 9.53553C1.62679 8.59785 1.10001 7.32608 1.10001 6C1.10001 4.67392 1.62679 3.40215 2.56447 2.46447C3.50215 1.52678 4.77392 1 6.10001 1H9.10001" stroke="#141414" stroke-width="2" stroke-linecap="round" stroke-linejoin="round"/>
</svg>
